<svg xmlns="http://www.w3.org/2000/svg" viewBox="0 0 102.65 102.31"><defs><style>.cls-1{fill:#fff;}.cls-2{fill:none;stroke:#fff;stroke-miterlimit:10;stroke-width:0.5px;}</style></defs><g id="Vrstva_2" data-name="Vrstva 2"><g id="Vrstva_1-2" data-name="Vrstva 1"><path class="cls-1" d="M62,69.52a5.79,5.79,0,0,0,.61-.5c1.7-1.57,2.68-4,2.92-7.32H76.7q-.63,8.76-6.47,13.8a19.16,19.16,0,0,1-3,2.11Zm4.83,8.33a24.94,24.94,0,0,1-12,2.68q-10.44,0-16.43-7A25.19,25.19,0,0,1,33,61L44.1,45.4a41.1,41.1,0,0,0-.33,5v4.1q0,8.81,2.67,12.87t8.41,4.06a12.45,12.45,0,0,0,6.69-1.56l0,0ZM33,44.38l0-.11a29.26,29.26,0,0,1,2.21-7.19,20.7,20.7,0,0,1,7.89-9.16A21.43,21.43,0,0,1,53,24.81Zm20.8-19.62h.07c.38,0,.77,0,1.17,0,1,0,1.9,0,2.8.11l.4,0-6.89,9.55a8.85,8.85,0,0,0-4.69,3.48,16.06,16.06,0,0,0-2.35,6.38L32.84,60.24a42.9,42.9,0,0,1-.41-6V50.88a39.38,39.38,0,0,1,.4-5.66Zm5,.2a20.54,20.54,0,0,1,11.34,4.81q5.74,5,6.64,14.14H65.59q-.41-5.26-2.93-7.63T55,33.91a12.83,12.83,0,0,0-2.28.19,6.18,6.18,0,0,0-.62.12Z"/><polyline class="cls-2" points="99.34 84.01 2.42 78.86 30.12 86.29 18.03 39.69"/><line class="cls-2" x1="67.08" y1="77.81" x2="78.77" y2="95.75"/><line class="cls-2" x1="41.4" y1="38.38" x2="61.74" y2="69.6"/><polyline class="cls-2" points="35.96 40.44 30.8 22.1 39.87 36.03"/><line class="cls-2" x1="38.93" y1="50.97" x2="36.51" y2="42.37"/><polyline class="cls-2" points="31.42 62.67 9.18 93.72 51.74 96.42 39.4 52.63"/><polyline class="cls-2" points="53.77 24.41 54.35 23.85 70.66 7.91"/><polyline class="cls-2" points="58.34 26.97 101.74 56.56 12.55 64.67 32.57 45.12"/><polyline class="cls-2" points="27.42 5.88 54.1 24.08 56.88 25.97"/><polygon class="cls-1" points="61.58 69.8 61.98 69.53 61.86 69.33 61.43 69.59 61.58 69.8"/><polygon class="cls-1" points="66.81 77.85 67.25 77.61 67.35 77.76 66.91 78 66.81 77.85"/><circle class="cls-1" cx="30.58" cy="21.74" r="0.91"/><circle class="cls-1" cx="70.27" cy="8.31" r="0.91"/><circle class="cls-1" cx="44.85" cy="43.76" r="0.91"/><circle class="cls-1" cx="55.95" cy="60.58" r="0.91"/><circle class="cls-1" cx="31.16" cy="63.03" r="0.91"/><circle class="cls-1" cx="12.55" cy="64.67" r="0.91"/><circle class="cls-1" cx="23.26" cy="73.85" r="0.91"/><circle class="cls-1" cx="21.95" cy="55.38" r="0.91"/><circle class="cls-1" cx="30.12" cy="86.29" r="0.91"/><circle class="cls-1" cx="0.91" cy="78.57" r="0.91"/><circle class="cls-1" cx="9.18" cy="93.72" r="0.91"/><circle class="cls-1" cx="51.74" cy="96.42" r="0.91"/><circle class="cls-1" cx="78.77" cy="95.75" r="0.91"/><circle class="cls-1" cx="70.11" cy="82.45" r="0.91"/><circle class="cls-1" cx="101.74" cy="56.56" r="0.91"/><circle class="cls-1" cx="27.42" cy="5.89" r="0.91"/><circle class="cls-1" cx="18.03" cy="39.69" r="0.91"/><circle class="cls-1" cx="47.27" cy="81.06" r="0.91"/><rect class="cls-2" x="0.42" y="0.25" width="101.81" height="101.81"/></g></g></svg>